# xmcd
#
# Track frame offsets:
# 150
# 11997
# 28382
# 49355
# 62655
# 87037
# 100097
# 113330
# 126687
# 142977
# 158422
#
# Disc length: 2434 seconds
#
#
# Revision: 2
# Processed by: cddbd v1.5.2PL0 Copyright (c) Steve Scherf et al.
# Submitted via: FreeRIP 2.40 
#
DISCID=8f09800b
DTITLE=Zuzu Bollin - Texas Bluesman
DYEAR=1991
DGENRE=Blues
TTITLE0=Big Legs
TTITLE1=Hey Little Girl
TTITLE2=Blues In The Dark
TTITLE3=Kidney Stew
TTITLE4=Cold, Cold Feeling
TTITLE5=What Don't You Eat Where You Slept Last Night
TTITLE6=Headlight Blues
TTITLE7=How Do You Want Your Rollin' Done
TTITLE8=Leary Blues
TTITLE9=Rebecca
TTITLE10=Zu's Blues
EXTD=
EXTT0=
EXTT1=
EXTT2=
EXTT3=
EXTT4=
EXTT5=
EXTT6=
EXTT7=
EXTT8=
EXTT9=
EXTT10=
PLAYORDER=
